HIERARCHY
ROOT Pelvis
{
	OFFSET 0.000000 0.000000 0.000000
	CHANNELS 6 Xposition Yposition Zposition Xrotation Yrotation Zrotation
	JOINT LeftUpLeg_virtual
	{
		OFFSET 0.000000 0.000000 0.000000
		CHANNELS 3 Xrotation Yrotation Zrotation
		JOINT LeftUpLeg
		{
			OFFSET 18.735201 -5.666702 -4.541200
			CHANNELS 3 Xrotation Yrotation Zrotation
			JOINT LeftLeg
			{
				OFFSET -0.021200 -31.938179 0.493100
				CHANNELS 3 Xrotation Yrotation Zrotation
				JOINT LeftFoot
				{
					OFFSET 0.021200 -31.938179 -4.336299
					CHANNELS 3 Xrotation Yrotation Zrotation
					JOINT LeftToeBase
					{
						OFFSET 0.943001 -26.722000 15.023500
						CHANNELS 3 Xrotation Yrotation Zrotation
						End Site
						{
							OFFSET 0 0 0
						}
					}
				}
			}
		}
	}
	JOINT RightUpLeg_virtual
	{
		OFFSET 0.000000 0.000000 0.000000
		CHANNELS 3 Xrotation Yrotation Zrotation
		JOINT RightUpLeg
		{
			OFFSET -18.735201 -5.666702 -4.541200
			CHANNELS 3 Xrotation Yrotation Zrotation
			JOINT RightLeg
			{
				OFFSET 0.018946 -31.938133 0.493100
				CHANNELS 3 Xrotation Yrotation Zrotation
				JOINT RightFoot
				{
					OFFSET -0.018946 -31.938126 -4.336299
					CHANNELS 3 Xrotation Yrotation Zrotation
					JOINT RightToeBase
					{
						OFFSET -0.943001 -26.722004 15.023500
						CHANNELS 3 Xrotation Yrotation Zrotation
						End Site
						{
							OFFSET 0 0 0
						}
					}
				}
			}
		}
	}
	JOINT Hips_virtual
	{
		OFFSET 0.000000 0.000000 0.000000
		CHANNELS 3 Xrotation Yrotation Zrotation
		JOINT Hips
		{
			OFFSET -0.000000 -0.000000 -0.000000
			CHANNELS 3 Xrotation Yrotation Zrotation
			JOINT Spine
			{
				OFFSET 0.000000 10.199997 -0.299500
				CHANNELS 3 Xrotation Yrotation Zrotation
				JOINT Spine1
				{
					OFFSET 0.000000 11.900002 -1.516600
					CHANNELS 3 Xrotation Yrotation Zrotation
					JOINT Spine2
					{
						OFFSET 0.000000 13.600006 -2.842500
						CHANNELS 3 Xrotation Yrotation Zrotation
						JOINT Neck_virtual
						{
							OFFSET 0.000000 0.000000 0.000000
							CHANNELS 3 Xrotation Yrotation Zrotation
							JOINT Neck
							{
								OFFSET 0.000000 9.624100 -2.890100
								CHANNELS 3 Xrotation Yrotation Zrotation
								JOINT Head
								{
									OFFSET 0.000000 14.068802 -1.351900
									CHANNELS 3 Xrotation Yrotation Zrotation
									End Site
									{
										OFFSET 0 0 0
									}
								}
							}
						}
						JOINT LeftShoulder_virtual
						{
							OFFSET 0.000000 0.000000 0.000000
							CHANNELS 3 Xrotation Yrotation Zrotation
							JOINT LeftShoulder
							{
								OFFSET 15.263000 10.923401 -0.547700
								CHANNELS 3 Xrotation Yrotation Zrotation
								JOINT LeftArm
								{
									OFFSET 25.438599 -2.830597 -13.032500
									CHANNELS 3 Xrotation Yrotation Zrotation
									JOINT LeftForeArm
									{
										OFFSET 29.960503 0.000000 0.000000
										CHANNELS 3 Xrotation Yrotation Zrotation
										JOINT LeftHand
										{
											OFFSET 27.849251 0.000000 0.000000
											CHANNELS 3 Xrotation Yrotation Zrotation
											End Site
											{
												OFFSET 0 0 0
											}
										}
									}
								}
							}
						}
						JOINT RightShoulder_virtual
						{
							OFFSET 0.000000 0.000000 0.000000
							CHANNELS 3 Xrotation Yrotation Zrotation
							JOINT RightShoulder
							{
								OFFSET -15.263000 10.923401 -0.547700
								CHANNELS 3 Xrotation Yrotation Zrotation
								JOINT RightArm
								{
									OFFSET -25.438599 -2.830597 -13.032500
									CHANNELS 3 Xrotation Yrotation Zrotation
									JOINT RightForeArm
									{
										OFFSET -29.960503 0.000000 0.000000
										CHANNELS 3 Xrotation Yrotation Zrotation
										JOINT RightHand
										{
											OFFSET -27.849251 0.000000 0.000000
											CHANNELS 3 Xrotation Yrotation Zrotation
											End Site
											{
												OFFSET 0 0 0
											}
										}
									}
								}
							}
						}
					}
				}
			}
		}
	}
}
MOTION
Frames: 11
Frame Time: 0.03333333
-1.060659 91.750877 0.981377 0.000000 0.000000 0.000000 0.041553 -28.995744 -0.650787 -23.675208 17.400902 15.229440 27.947630 11.730861 -0.661152 -1.942221 -4.473509 -5.501217 0.000000 0.000000 0.000000 -0.258390 -27.734842 -1.198658 -9.861013 0.522541 -9.714989 13.221201 6.677017 1.412690 -4.468122 2.138927 9.705206 0.000000 0.000000 0.000000 -0.303954 -27.938803 -0.515100 -0.757038 0.252356 -0.841550 8.594302 -0.465120 -1.449146 1.128507 -1.265010 2.284220 0.000000 0.000000 0.000000 0.805079 -0.656692 2.279422 -1.312690 3.058414 -1.171821 0.000000 0.000000 0.000000 0.465068 -0.798583 1.928832 0.406305 -9.501018 0.756175 -60.334025 -1.596902 -43.452318 5.445199 -58.658293 8.657349 0.000000 0.000000 0.000000 0.669219 -0.667346 2.105331 4.206313 3.228848 7.710196 -2.625050 -0.358935 63.929396 9.463201 21.277661 -4.156700 0.000000 0.000000 0.000000 
-1.103071 91.769928 1.195599 0.000000 0.000000 0.000000 0.099393 -28.772025 -0.621719 -23.546309 17.464715 15.076529 27.594381 11.760042 -0.707006 -2.240196 -4.339868 -5.422094 0.000000 0.000000 0.000000 -0.266546 -27.475464 -1.210092 -10.161102 0.433085 -9.764520 13.618467 6.922629 1.465652 -3.596037 2.343534 10.096201 0.000000 0.000000 0.000000 -0.272675 -27.771747 -0.490542 -0.749467 0.215744 -0.920103 8.592071 -0.358643 -1.405312 1.074078 -1.168453 2.192082 0.000000 0.000000 0.000000 0.728896 -0.587541 2.225961 -1.293319 3.085591 -1.197087 0.000000 0.000000 0.000000 0.463991 -0.694264 1.839679 0.337125 -8.934324 0.681283 -60.177027 -1.111886 -42.902638 5.445047 -58.680655 8.573891 0.000000 0.000000 0.000000 0.660464 -0.599876 2.034108 4.270000 3.330721 7.748847 -2.633477 -0.223854 63.615043 9.444385 21.551825 -4.087215 0.000000 0.000000 0.000000 
-1.025121 91.716370 1.395100 0.000000 0.000000 0.000000 0.301863 -28.452802 -0.478076 -23.634623 17.765602 14.824036 27.221215 11.797741 -0.786474 -2.320441 -4.324944 -5.349662 0.000000 0.000000 0.000000 -0.221543 -27.128005 -1.106748 -10.546848 0.186486 -9.937384 14.360855 6.988880 1.363726 -2.996257 2.317336 10.281287 0.000000 0.000000 0.000000 -0.086158 -27.553900 -0.360924 -0.721556 0.111584 -0.997644 8.565017 -0.212549 -1.436719 0.961381 -0.992019 2.089149 0.000000 0.000000 0.000000 0.608181 -0.429651 2.152319 -1.256283 3.277818 -1.212384 0.000000 0.000000 0.000000 0.454411 -0.513721 1.732552 0.280362 -7.989881 0.534631 -59.918845 -0.196565 -41.881904 5.597527 -58.952927 8.530073 0.000000 0.000000 0.000000 0.639316 -0.454612 1.956693 4.338517 3.563745 7.721756 -2.336540 -0.051507 63.267844 9.534135 21.992174 -4.012522 0.000000 0.000000 0.000000 
-0.831477 91.626480 1.567532 0.000000 0.000000 0.000000 0.598390 -28.036315 -0.245710 -24.016473 18.253170 14.539791 27.154547 11.847229 -0.934864 -2.298736 -4.416839 -5.174586 0.000000 0.000000 0.000000 -0.048570 -26.738570 -0.846069 -10.875394 -0.261251 -10.176482 15.163015 6.770176 1.112552 -3.420477 1.916326 10.261792 0.000000 0.000000 0.000000 0.263924 -27.208912 -0.119144 -0.637496 0.012085 -1.078978 8.465678 -0.049751 -1.521589 0.816611 -0.743469 1.986813 0.000000 0.000000 0.000000 0.468557 -0.198473 2.061754 -1.212862 3.625143 -1.224381 0.000000 0.000000 0.000000 0.461707 -0.274865 1.622578 0.255182 -6.785552 0.342360 -59.468271 0.832001 -40.512587 5.855367 -59.432843 8.465097 0.000000 0.000000 0.000000 0.617134 -0.235044 1.883285 4.407654 3.931275 7.659598 -1.762195 0.107194 62.979911 9.701713 22.348941 -3.938846 0.000000 0.000000 0.000000 
-0.535605 91.533157 1.747803 0.000000 0.000000 0.000000 0.998027 -27.484005 0.082434 -24.606057 18.835305 14.229790 27.383301 11.864615 -1.146100 -2.447515 -4.666940 -4.927841 0.000000 0.000000 0.000000 0.345431 -26.319813 -0.414585 -11.228212 -0.876939 -10.433307 16.087373 6.333295 0.725717 -4.603355 1.251178 10.291673 0.000000 0.000000 0.000000 0.745698 -26.711885 0.228478 -0.608820 0.025813 -1.087335 8.266834 0.135174 -1.628929 0.643798 -0.409169 1.891198 0.000000 0.000000 0.000000 0.341336 0.101775 1.959757 -1.169121 4.112551 -1.248433 0.000000 0.000000 0.000000 0.489992 0.033243 1.520629 0.265211 -5.326242 0.149810 -58.723439 1.796878 -38.878461 6.205263 -60.053919 8.372556 0.000000 0.000000 0.000000 0.598658 0.066996 1.820970 4.461667 4.458093 7.568221 -1.015417 0.190024 62.825145 9.915849 22.442035 -3.872176 0.000000 0.000000 0.000000 
-0.155674 91.448006 2.009476 0.000000 0.000000 0.000000 1.465327 -26.710498 0.492816 -25.257391 19.389712 13.840098 27.799751 11.794116 -1.403471 -2.661031 -5.120217 -4.631746 0.000000 0.000000 0.000000 0.964077 -25.676243 0.143729 -11.833981 -1.658298 -10.758705 17.355779 5.819640 0.217446 -5.879434 0.505192 10.654036 0.000000 0.000000 0.000000 1.336680 -25.962712 0.665034 -0.612817 0.061664 -1.112488 7.940083 0.353561 -1.754053 0.449766 0.007642 1.803815 0.000000 0.000000 0.000000 0.249584 0.473372 1.835644 -1.136427 4.708199 -1.301226 0.000000 0.000000 0.000000 0.536825 0.411918 1.426223 0.290481 -3.694703 -0.039556 -57.677614 2.596406 -37.100683 6.592286 -60.816325 8.239548 0.000000 0.000000 0.000000 0.590722 0.458038 1.768292 4.495747 5.116018 7.465639 -0.227253 0.080417 62.802531 10.130215 22.230118 -3.828321 0.000000 0.000000 0.000000 
0.290368 91.384377 2.360600 0.000000 0.000000 0.000000 1.980164 -25.650352 0.950683 -25.907201 19.843330 13.286916 28.311336 11.787623 -1.684723 -2.733112 -5.653858 -4.079071 0.000000 0.000000 0.000000 1.709449 -24.669120 0.750689 -12.989722 -2.623381 -11.183040 19.312418 5.224835 -0.402321 -6.974346 -0.360240 11.171321 0.000000 0.000000 0.000000 1.918066 -24.899239 1.149837 -0.565562 0.094204 -1.113216 7.524171 0.608550 -1.909559 0.258838 0.497472 1.710465 0.000000 0.000000 0.000000 0.209592 0.900330 1.682440 -1.121115 5.374379 -1.390564 0.000000 0.000000 0.000000 0.596995 0.856505 1.338213 0.315487 -1.908279 -0.266746 -56.479606 3.297677 -35.210513 7.008794 -61.801198 8.089053 0.000000 0.000000 0.000000 0.601848 0.921080 1.712666 4.499857 5.816844 7.364030 0.507937 -0.263456 62.829988 10.320564 21.797772 -3.796159 0.000000 0.000000 0.000000 
0.824240 91.312462 2.801674 0.000000 0.000000 0.000000 2.458871 -24.199106 1.432548 -26.541070 20.038984 12.460786 28.978242 11.917148 -1.958440 -2.634739 -6.203323 -3.186080 0.000000 0.000000 0.000000 2.393537 -23.201958 1.316115 -14.828821 -3.789721 -11.817954 22.292392 4.492092 -1.090668 -7.714097 -1.370457 11.534291 0.000000 0.000000 0.000000 2.388705 -23.489973 1.617080 -0.522755 0.143928 -1.103010 7.115655 0.879204 -2.081840 0.094373 1.027470 1.597664 0.000000 0.000000 0.000000 0.209162 1.372548 1.507762 -1.118739 6.067933 -1.518675 0.000000 0.000000 0.000000 0.664205 1.346215 1.238741 0.331460 -0.014893 -0.550108 -55.249417 4.096243 -33.275555 7.514934 -63.112949 8.008937 0.000000 0.000000 0.000000 0.637545 1.431589 1.643479 4.494530 6.480495 7.242705 1.138688 -0.788566 62.864201 10.453565 21.217168 -3.777139 0.000000 0.000000 0.000000 
1.442832 91.166771 3.350861 0.000000 0.000000 0.000000 2.762607 -22.261282 1.874573 -27.136668 19.718510 11.322123 29.945680 12.042323 -2.160233 -2.712755 -6.819535 -2.116294 0.000000 0.000000 0.000000 2.793671 -21.133065 1.788608 -17.309750 -4.931506 -12.781075 26.370204 3.727349 -1.834094 -7.622259 -2.382807 11.554438 0.000000 0.000000 0.000000 2.656744 -21.669588 2.021855 -0.456520 0.235892 -1.117355 6.795741 1.143796 -2.270992 -0.022392 1.546702 1.472469 0.000000 0.000000 0.000000 0.242231 1.845834 1.322445 -1.134089 6.732621 -1.669579 0.000000 0.000000 0.000000 0.747662 1.839246 1.129588 0.340058 1.902077 -0.952467 -54.164496 5.169535 -31.310243 8.053526 -64.628684 7.988451 0.000000 0.000000 0.000000 0.704442 1.937741 1.562115 4.500293 7.016667 7.078552 1.575346 -1.291521 62.892566 10.496321 20.488394 -3.770883 0.000000 0.000000 0.000000 
2.102688 90.925468 3.912975 0.000000 0.000000 0.000000 2.804799 -19.797703 2.230335 -27.606665 18.824070 9.931445 31.181122 11.938976 -2.245979 -3.386623 -7.599501 -1.258162 0.000000 0.000000 0.000000 2.836831 -18.514595 2.147217 -20.506678 -5.673046 -14.048983 31.707155 3.139899 -2.627936 -6.017210 -3.119096 11.348466 0.000000 0.000000 0.000000 2.626476 -19.387424 2.339337 -0.384259 0.400292 -1.078093 6.669005 1.375587 -2.467617 -0.075569 2.003373 1.352525 0.000000 0.000000 0.000000 0.316743 2.270485 1.151345 -1.166190 7.325717 -1.820474 0.000000 0.000000 0.000000 0.831403 2.286251 1.025069 0.350821 3.821394 -1.534153 -53.341346 6.707834 -29.243571 8.632937 -66.204962 8.080915 0.000000 0.000000 0.000000 0.789855 2.390763 1.474682 4.515570 7.407101 6.875131 1.842898 -1.433109 62.969235 10.440760 19.602967 -3.775484 0.000000 0.000000 0.000000 
2.779167 90.603790 4.425175 0.000000 0.000000 0.000000 2.529480 -16.831613 2.461508 -27.889069 17.557882 8.498176 32.458722 11.434787 -2.245270 -4.677126 -8.626357 -0.994733 0.000000 0.000000 0.000000 2.517081 -15.460330 2.360552 -24.381947 -5.795469 -15.483218 38.044642 2.962874 -3.431481 -2.470640 -3.346157 10.961680 0.000000 0.000000 0.000000 2.295004 -16.675668 2.528451 -0.260710 0.560522 -1.017052 6.760692 1.561061 -2.657548 -0.075336 2.364353 1.253031 0.000000 0.000000 0.000000 0.417164 2.614919 1.010127 -1.219751 7.807383 -1.947351 0.000000 0.000000 0.000000 0.909791 2.651275 0.950799 0.366102 5.650972 -2.294625 -52.812488 8.770587 -27.052047 9.286421 -67.851741 8.339769 0.000000 0.000000 0.000000 0.884624 2.758868 1.388493 4.531376 7.677468 6.686432 2.046156 -0.955122 63.089187 10.277892 18.674101 -3.794238 0.000000 0.000000 0.000000 
